<?xml version="1.0" encoding="UTF-8"?>
<svg xmlns="http://www.w3.org/2000/svg" width="64" height="64" viewBox="0 0 64 64" fill="none">
  <g clip-path="url(#clip0_2261_10330)">
    <path d="M29.3124 3.2002C23.6164 3.2002 18.9844 7.83219 18.9844 13.5202C18.9844 19.2082 23.6164 23.8482 29.3124 23.8482C35.0084 23.8482 39.6324 19.2162 39.6324 13.5202C39.6324 7.82419 35.0004 3.2002 29.3124 3.2002ZM29.3124 20.6482C25.3844 20.6482 22.1844 17.4482 22.1844 13.5202C22.1844 9.59219 25.3844 6.4002 29.3124 6.4002C33.2404 6.4002 36.4324 9.59219 36.4324 13.5202C36.4324 17.4482 33.2404 20.6482 29.3124 20.6482Z" fill="#102F48"></path>
    <path d="M48.7356 14.4004H45.2156C44.7756 14.4004 44.4156 14.7604 44.4156 15.2004V28.2084C44.4156 28.8324 43.7276 29.2164 43.1916 28.8884L40.0476 26.9284C39.9196 26.8484 39.7676 26.8084 39.6236 26.8084H17.9676C17.8236 26.8084 17.6716 26.8484 17.5436 26.9284L9.97561 31.6804C9.73561 31.8244 9.59961 32.0804 9.59961 32.3524V46.8084C9.59961 47.0724 9.71961 47.3124 9.93561 47.4644L16.4636 52.1284C16.6716 52.2804 16.7996 52.5204 16.7996 52.7764V60.0004C16.7916 60.4404 17.1516 60.8004 17.5916 60.8004H40.7996C41.2396 60.8004 41.5996 60.4404 41.5996 60.0004V41.7764C41.5996 41.1604 42.2636 40.7764 42.7996 41.0884L49.3196 44.8884C49.6396 45.0724 50.0316 45.0244 50.2956 44.7684L54.1596 40.8964C54.3116 40.7444 54.3996 40.5444 54.3996 40.3284V20.0564C54.3996 16.9284 51.8636 14.4004 48.7356 14.4004ZM51.1996 39.0084C51.1996 39.2164 51.1116 39.4244 50.9596 39.5684L49.7756 40.7604C49.5196 41.0164 49.1196 41.0644 48.8076 40.8804L39.5996 35.5124C39.0636 35.2004 38.3996 35.5844 38.3996 36.2084V56.8004C38.3996 57.2404 38.0396 57.6004 37.5996 57.6004H20.7996C20.3516 57.6004 19.9996 57.2404 19.9996 56.8004V50.4404C19.9996 50.1844 20.1196 49.9444 20.3276 49.7924L31.0316 41.9444L35.7916 38.6804C36.0076 38.5364 36.1356 38.2884 36.1356 38.0244V34.4884C36.1356 34.2164 35.9996 33.9684 35.7836 33.8244L32.3196 31.5124C32.0636 31.3364 31.7276 31.3284 31.4636 31.4884L29.2796 32.8004C29.0236 32.9524 28.7116 32.9524 28.4556 32.8004L26.2716 31.4884C26.0076 31.3284 25.6716 31.3364 25.4156 31.5124L21.9516 33.8244C21.7276 33.9684 21.5996 34.2164 21.5996 34.4884V36.4724C21.5996 36.7124 21.4876 36.9364 21.3116 37.0884C21.1596 37.2164 20.9756 37.2724 20.8076 37.2724C20.3916 37.2724 19.9996 36.9524 19.9996 36.4724V36.0004C19.9996 35.5604 19.6396 35.2004 19.1996 35.2004H17.5996C17.1516 35.2004 16.7996 35.5604 16.7996 36.0004V43.3044C16.7996 43.9844 17.5916 44.3524 18.1116 43.9204L22.8236 39.9924C23.1036 39.7604 23.4956 39.7444 23.7916 39.9444L25.2156 40.9204C25.6716 41.2324 25.6796 41.8964 25.2396 42.2244L17.2476 48.0804C16.9756 48.2884 16.5916 48.2884 16.3116 48.0884L13.1356 45.8164C12.9196 45.6644 12.7996 45.4244 12.7996 45.1604V34.1284C12.7996 33.8484 12.9356 33.5924 13.1756 33.4484L18.4636 30.1284C18.5916 30.0484 18.7436 30.0084 18.8876 30.0084H38.7036C38.8556 30.0084 38.9996 30.0484 39.1276 30.1284L46.3916 34.6484C46.9276 34.9764 47.6156 34.5924 47.6156 33.9684V18.4004C47.6156 17.9604 47.9756 17.6004 48.4156 17.6004H48.7356C50.0956 17.6004 51.1996 18.6964 51.1996 20.0564V39.0084ZM28.4156 39.2324L25.1436 36.9924C24.9276 36.8484 24.7996 36.6004 24.7996 36.3364V36.2004C24.7996 35.9284 24.9276 35.6804 25.1516 35.5364L25.5036 35.2964C25.7676 35.1284 26.0956 35.1204 26.3596 35.2804L28.4556 36.5364C28.7116 36.6884 29.0236 36.6884 29.2796 36.5364L31.3676 35.2804C31.6396 35.1204 31.9676 35.1284 32.2236 35.2964L32.5836 35.5364C32.7996 35.6804 32.9356 35.9284 32.9356 36.2004V36.3364C32.9356 36.6004 32.8076 36.8484 32.5916 36.9924L29.3196 39.2324C29.0476 39.4164 28.6876 39.4164 28.4156 39.2324Z" fill="#102F48"></path>
    <path d="M51.2008 20.0556V39.0076C51.2008 39.2156 51.1128 39.4236 50.9608 39.5676L49.7768 40.7596C49.5208 41.0156 49.1208 41.0636 48.8088 40.8796L39.6008 35.5116C39.0648 35.1996 38.4008 35.5836 38.4008 36.2076V56.7996C38.4008 57.2396 38.0408 57.5996 37.6008 57.5996H20.8008C20.3528 57.5996 20.0008 57.2396 20.0008 56.7996V50.4396C20.0008 50.1836 20.1208 49.9436 20.3288 49.7916L31.0328 41.9436L35.7928 38.6796C36.0088 38.5356 36.1368 38.2876 36.1368 38.0236V34.4876C36.1368 34.2156 36.0008 33.9676 35.7848 33.8236L32.3208 31.5116C32.0648 31.3356 31.7288 31.3276 31.4648 31.4876L29.2808 32.7996C29.0248 32.9516 28.7128 32.9516 28.4568 32.7996L26.2728 31.4876C26.0088 31.3276 25.6728 31.3356 25.4168 31.5116L21.9528 33.8236C21.7288 33.9676 21.6008 34.2156 21.6008 34.4876V36.4716C21.6008 36.7116 21.4888 36.9356 21.3128 37.0876C21.1608 37.2156 20.9768 37.2716 20.8088 37.2716C20.3928 37.2716 20.0008 36.9516 20.0008 36.4716V35.9996C20.0008 35.5596 19.6408 35.1996 19.2008 35.1996H17.6008C17.1528 35.1996 16.8008 35.5596 16.8008 35.9996V43.3036C16.8008 43.9836 17.5928 44.3516 18.1128 43.9196L22.8248 39.9916C23.1048 39.7596 23.4968 39.7436 23.7928 39.9436L25.2168 40.9196C25.6728 41.2316 25.6808 41.8956 25.2408 42.2236L17.2488 48.0796C16.9768 48.2876 16.5928 48.2876 16.3128 48.0876L13.1368 45.8156C12.9208 45.6636 12.8008 45.4236 12.8008 45.1596V34.1276C12.8008 33.8476 12.9368 33.5916 13.1768 33.4476L18.4648 30.1276C18.5928 30.0476 18.7448 30.0076 18.8888 30.0076H38.7048C38.8568 30.0076 39.0008 30.0476 39.1288 30.1276L46.3928 34.6476C46.9288 34.9756 47.6168 34.5916 47.6168 33.9676V18.3996C47.6168 17.9596 47.9768 17.5996 48.4168 17.5996H48.7368C50.0968 17.5996 51.2008 18.6956 51.2008 20.0556Z" fill="white"></path>
  </g>
  <defs>
    <clipPath id="clip0_2261_10330">
      <rect width="64" height="64" fill="white"></rect>
    </clipPath>
  </defs>
</svg>
